<?xml version="1.0" encoding="utf-8"?>
<!-- Generator: Adobe Illustrator 25.4.1, SVG Export Plug-In . SVG Version: 6.00 Build 0)  -->
<svg version="1.1" id="raphael-paper-0" xmlns="http://www.w3.org/2000/svg" xmlns:xlink="http://www.w3.org/1999/xlink" x="0px"
	 y="0px" viewBox="0 0 646 400" style="enable-background:new 0 0 646 400;" xml:space="preserve">
<style type="text/css">
	.st0{display:none;fill:none;}
	.st1{display:none;}
	.st2{display:inline;fill:#666666;}
	.st3{font-family:'Verdana';}
	.st4{font-size:10px;}
	.st5{display:none;fill:none;stroke:#000000;}
	.st6{fill:#FFFFFF;fill-opacity:0.5;}
	.st7{fill:none;}
	.st8{fill:#FFFFFF;}
	.st9{clip-path:url(#SVGID_00000043452079196334182400000013361381313216874158_);}
	.st10{fill:none;stroke:#717170;stroke-linecap:round;stroke-opacity:0.4;stroke-dasharray:3,3;}
	.st11{fill:#555555;}
	.st12{font-family:'Arial-BoldMT';}
	.st13{enable-background:new    ;}
	.st14{font-family:'AdobeSongStd-Light-GBpc-EUC-H';}
	.st15{font-family:'SourceHanSansCN-Medium-GBpc-EUC-H';}
	.st16{font-size:14px;}
	.st17{font-family:'ArialMT';}
	.st18{font-family:'SourceHanSansSC-Normal-GBpc-EUC-H';}
	.st19{clip-path:url(#SVGID_00000065054166706020039520000018046835982992272296_);}
	.st20{fill:#264D92;}
	.st21{fill:#051838;}
	.st22{fill:#DDDDDD;}
	.st23{fill:#A2AEB9;}
	.st24{fill:#8595B2;}
	.st25{fill:#57719E;}
	.st26{fill:none;stroke:#8E468E;stroke-linecap:round;}
	.st27{fill:#FFFFFF;stroke:#8E468E;stroke-linecap:round;}
	.st28{display:none;fill:none;stroke:#000000;stroke-linecap:round;}
	.st29{fill:#FFFFFF;stroke:#FFFFFF;}
	.st30{fill:#264D92;stroke:#7D94BE;stroke-width:0.5;stroke-linecap:round;}
	.st31{fill:#FF0000;fill-opacity:1.000000e-06;}
	.st32{fill:#051838;stroke:#697488;stroke-width:0.5;stroke-linecap:round;}
	.st33{fill:#DDDDDD;stroke:#EBEBEB;stroke-width:0.5;stroke-linecap:round;}
	.st34{fill:#A2AEB9;stroke:#C7CED5;stroke-width:0.5;stroke-linecap:round;}
	.st35{fill:#8595B2;stroke:#B6BFD1;stroke-width:0.5;stroke-linecap:round;}
	.st36{fill:#57719E;stroke:#9AAAC5;stroke-width:0.5;stroke-linecap:round;}
	.st37{display:inline;fill:#FF0000;fill-opacity:1.000000e-06;stroke:#FF0000;stroke-opacity:1.000000e-06;}
	.st38{display:inline;}
	.st39{fill:#FF0000;fill-opacity:1.000000e-06;stroke:#FF0000;stroke-opacity:1.000000e-06;}
	.st40{fill:#FFFFFF;stroke:#BBBBBB;}
	.st41{fill:#FFFFFF;stroke:#9A9A9A;stroke-linecap:round;}
	.st42{fill:#C0C0C0;fill-opacity:1.000000e-06;stroke:#C0C0C0;stroke-opacity:1.000000e-06;}
</style>
<path class="st0" d="z"/>
<text transform="matrix(1 0 0 1 -100 -100)" class="st3" style="display:none;enable-background:new    ; font-size:12px;">abcdefhiklmnopqrstuvwxyz</text>
<g class="st1">
	<text transform="matrix(1 0 0 1 255.2852 204.75)" class="st2 st3 st4">Loading chart. Please wait.</text>
</g>
<rect class="st5" width="10" height="30"/>
<text transform="matrix(1 0 0 1 -100 -100)" class="st17 st4" style="display:none;enable-background:new    ;">abcdefhiklmnopqrstuvwxyz</text>
<g>
	<g>
		<rect class="st6" width="646" height="400"/>
		<rect class="st7" width="646" height="400"/>
	</g>
	<g>
		<rect x="80" y="45.2" class="st8" width="513" height="224.2"/>
	</g>
	<g>
		<g>
			<g>
				<defs>
					<rect id="SVGID_1_" x="80" y="45.2" width="513" height="224.2"/>
				</defs>
				<clipPath id="SVGID_00000058563292531179016300000009595946995112986531_">
					<use xlink:href="#SVGID_1_"  style="overflow:visible;"/>
				</clipPath>
			</g>
			<g>
				<defs>
					<rect id="SVGID_00000005236279644549710680000008545502536234045354_" x="80" y="45.2" width="513" height="224.2"/>
				</defs>
				<clipPath id="SVGID_00000105422718411857323760000000623141943099565964_">
					<use xlink:href="#SVGID_00000005236279644549710680000008545502536234045354_"  style="overflow:visible;"/>
				</clipPath>
			</g>
			<g>
				<defs>
					<rect id="SVGID_00000110445983122012123120000007602641667642523010_" x="80" y="45.2" width="513" height="224.2"/>
				</defs>
				<clipPath id="SVGID_00000179639838432733907710000013767233012945495973_">
					<use xlink:href="#SVGID_00000110445983122012123120000007602641667642523010_"  style="overflow:visible;"/>
				</clipPath>
			</g>
		</g>
		<g>
			<g>
				<defs>
					<rect id="SVGID_00000176003940303035619240000007922541113253131163_" x="79" y="45.2" width="515" height="224.2"/>
				</defs>
				<clipPath id="SVGID_00000044170057884897123820000006248818369851094157_">
					<use xlink:href="#SVGID_00000176003940303035619240000007922541113253131163_"  style="overflow:visible;"/>
				</clipPath>
			</g>
			<g>
				<defs>
					<rect id="SVGID_00000150060793856555542110000011285777594390226055_" x="80" y="44.2" width="513" height="226.2"/>
				</defs>
				<clipPath id="SVGID_00000049909664100435700430000003445684020588332435_">
					<use xlink:href="#SVGID_00000150060793856555542110000011285777594390226055_"  style="overflow:visible;"/>
				</clipPath>
				<g style="clip-path:url(#SVGID_00000049909664100435700430000003445684020588332435_);">
					<path shape-rendering="crispEdges" class="st10" d="M80,269.5h513"/>
					<path shape-rendering="crispEdges" class="st10" d="M80,224.5h513"/>
					<path shape-rendering="crispEdges" class="st10" d="M80,179.5h513"/>
					<path shape-rendering="crispEdges" class="st10" d="M80,134.5h513"/>
					<path shape-rendering="crispEdges" class="st10" d="M80,90.5h513"/>
					<path shape-rendering="crispEdges" class="st10" d="M80,45.5h513"/>
				</g>
			</g>
			<g>
				<defs>
					<rect id="SVGID_00000157272223027241399610000002309142977179018650_" x="80" y="44.2" width="513" height="226.2"/>
				</defs>
				<clipPath id="SVGID_00000056423551617638182890000011208241237165059478_">
					<use xlink:href="#SVGID_00000157272223027241399610000002309142977179018650_"  style="overflow:visible;"/>
				</clipPath>
			</g>
		</g>
		<g>
			<g>
				<defs>
					<rect id="SVGID_00000054987053321700835630000004692090583466764186_" x="80" y="45.2" width="513" height="224.2"/>
				</defs>
				<clipPath id="SVGID_00000157271711724775221630000010350216922070806146_">
					<use xlink:href="#SVGID_00000054987053321700835630000004692090583466764186_"  style="overflow:visible;"/>
				</clipPath>
			</g>
			<g>
				<defs>
					<rect id="SVGID_00000080917806945806472820000011693880859421515700_" x="80" y="45.2" width="513" height="224.2"/>
				</defs>
				<clipPath id="SVGID_00000152957268761071940810000017922526934118829735_">
					<use xlink:href="#SVGID_00000080917806945806472820000011693880859421515700_"  style="overflow:visible;"/>
				</clipPath>
			</g>
			<g>
				<defs>
					<rect id="SVGID_00000183216828350114656360000004191167777062599600_" x="80" y="45.2" width="513" height="224.2"/>
				</defs>
				<clipPath id="SVGID_00000065060788675875032470000006481969102816049794_">
					<use xlink:href="#SVGID_00000183216828350114656360000004191167777062599600_"  style="overflow:visible;"/>
				</clipPath>
			</g>
		</g>
		<g>
			<g>
				<text transform="matrix(1 0 0 1 325.9336 314.9478)" class="st11 st12 st4">Year</text>
			</g>
			<g>
				<text transform="matrix(0 -1 1 0 28.4478 216.9971)" class="st13"><tspan x="0" y="0" class="st11 st14 st4">               </tspan><tspan x="31" y="0" class="st11 st15 st16"> 总游说支出</tspan></text>
				<text transform="matrix(1 0 0 1 64.877 273.4941)" class="st11 st17 st4">$0</text>
				<text transform="matrix(1 0 0 1 47.084 228.6442)" class="st11 st17 st4">$340K</text>
				<text transform="matrix(1 0 0 1 47.084 183.7941)" class="st11 st17 st4">$680K</text>
				<text transform="matrix(1 0 0 1 42.6455 138.9442)" class="st11 st17 st4">$1.02M</text>
				<text transform="matrix(1 0 0 1 42.6455 94.0941)" class="st11 st17 st4">$1.36M</text>
				<text transform="matrix(1 0 0 1 48.207 49.2441)" class="st11 st17 st4">$1.7M</text>
			</g>
			<g>
				<text transform="matrix(0 1 -1 0 617.5527 107.3726)" class="st11 st18 st16">游说人数</text>
				<text transform="matrix(1 0 0 1 597 273.4941)" class="st11 st17 st4">0</text>
				<text transform="matrix(1 0 0 1 597 228.6442)" class="st11 st17 st4">12</text>
				<text transform="matrix(1 0 0 1 597 183.7941)" class="st11 st17 st4">24</text>
				<text transform="matrix(1 0 0 1 597 138.9442)" class="st11 st17 st4">36</text>
				<text transform="matrix(1 0 0 1 597 94.0941)" class="st11 st17 st4">48</text>
				<text transform="matrix(1 0 0 1 597 49.2441)" class="st11 st17 st4">60</text>
			</g>
		</g>
		<g>
			<g>
				<text transform="matrix(0 -1 1 0 98.0359 295.7461)" class="st11 st17 st4">1998</text>
				<text transform="matrix(0 -1 1 0 119.1191 295.7461)" class="st11 st17 st4">1999</text>
				<text transform="matrix(0 -1 1 0 140.2024 295.7461)" class="st11 st17 st4">2000</text>
				<text transform="matrix(0 -1 1 0 161.2859 295.7461)" class="st11 st17 st4">2001</text>
				<text transform="matrix(0 -1 1 0 182.3691 295.7461)" class="st11 st17 st4">2002</text>
				<text transform="matrix(0 -1 1 0 203.4524 295.7461)" class="st11 st17 st4">2003</text>
				<text transform="matrix(0 -1 1 0 224.5359 295.7461)" class="st11 st17 st4">2004</text>
				<text transform="matrix(0 -1 1 0 245.6191 295.7461)" class="st11 st17 st4">2005</text>
				<text transform="matrix(0 -1 1 0 266.7024 295.7461)" class="st11 st17 st4">2006</text>
				<text transform="matrix(0 -1 1 0 287.7859 295.7461)" class="st11 st17 st4">2007</text>
				<text transform="matrix(0 -1 1 0 308.8691 295.7461)" class="st11 st17 st4">2008</text>
				<text transform="matrix(0 -1 1 0 329.9524 295.7461)" class="st11 st17 st4">2009</text>
				<text transform="matrix(0 -1 1 0 351.0359 295.7461)" class="st11 st17 st4">2010</text>
				<text transform="matrix(0 -1 1 0 372.1191 295.0039)" class="st11 st17 st4">2011</text>
				<text transform="matrix(0 -1 1 0 393.2024 295.7461)" class="st11 st17 st4">2012</text>
				<text transform="matrix(0 -1 1 0 414.2859 295.7461)" class="st11 st17 st4">2013</text>
				<text transform="matrix(0 -1 1 0 435.3691 295.7461)" class="st11 st17 st4">2014</text>
				<text transform="matrix(0 -1 1 0 456.4524 295.7461)" class="st11 st17 st4">2015</text>
				<text transform="matrix(0 -1 1 0 477.5358 295.7461)" class="st11 st17 st4">2016</text>
				<text transform="matrix(0 -1 1 0 498.6191 295.7461)" class="st11 st17 st4">2017</text>
				<text transform="matrix(0 -1 1 0 519.7025 295.7461)" class="st11 st17 st4">2018</text>
				<text transform="matrix(0 -1 1 0 540.7858 295.7461)" class="st11 st17 st4">2019</text>
				<text transform="matrix(0 -1 1 0 561.8691 295.7461)" class="st11 st17 st4">2020</text>
				<text transform="matrix(0 -1 1 0 582.9525 295.7461)" class="st11 st17 st4">2021</text>
			</g>
		</g>
	</g>
	<g>
		<g>
			<defs>
				<rect id="SVGID_00000013890293644036512760000016312915603225312648_" x="80" y="45.2" width="513" height="224.2"/>
			</defs>
			<clipPath id="SVGID_00000097500208636568812340000015707119520690827961_">
				<use xlink:href="#SVGID_00000013890293644036512760000016312915603225312648_"  style="overflow:visible;"/>
			</clipPath>
			<g style="clip-path:url(#SVGID_00000097500208636568812340000015707119520690827961_);">
				<g>
					<rect x="85.5" y="244.5" class="st20" width="17" height="25"/>
					<rect x="106.5" y="219.5" class="st20" width="17" height="50"/>
					<rect x="127.5" y="232.5" class="st20" width="17" height="37"/>
					<rect x="148.5" y="251.5" class="st20" width="17" height="18"/>
					<rect x="169.5" y="237.5" class="st20" width="17" height="32"/>
					<rect x="191.5" y="257.5" class="st20" width="16" height="12"/>
					<rect x="212.5" y="243.5" class="st20" width="16" height="26"/>
					<rect x="233.5" y="223.5" class="st20" width="17" height="46"/>
					<rect x="254.5" y="269.5" class="st20" width="17" height="1"/>
					<rect x="275.5" y="212.5" class="st20" width="17" height="57"/>
				</g>
				<g>
					<rect x="85.5" y="222.5" class="st21" width="17" height="22"/>
					<rect x="106.5" y="187.5" class="st21" width="17" height="32"/>
					<rect x="127.5" y="198.5" class="st21" width="17" height="34"/>
					<rect x="148.5" y="227.5" class="st21" width="17" height="24"/>
					<rect x="169.5" y="198.5" class="st21" width="17" height="39"/>
					<rect x="191.5" y="233.5" class="st21" width="16" height="24"/>
					<rect x="212.5" y="219.5" class="st21" width="16" height="24"/>
					<rect x="233.5" y="175.5" class="st21" width="17" height="48"/>
					<rect x="254.5" y="219.5" class="st21" width="17" height="50"/>
					<rect x="275.5" y="118.5" class="st21" width="17" height="94"/>
				</g>
				<g>
					<rect x="296.5" y="239.5" class="st22" width="17" height="30"/>
					<rect x="317.5" y="211.5" class="st22" width="17" height="58"/>
					<rect x="338.5" y="225.5" class="st22" width="17" height="44"/>
					<rect x="359.5" y="216.5" class="st22" width="17" height="53"/>
					<rect x="380.5" y="229.5" class="st22" width="17" height="40"/>
					<rect x="401.5" y="227.5" class="st22" width="17" height="42"/>
					<rect x="422.5" y="235.5" class="st22" width="17" height="34"/>
					<rect x="444.5" y="233.5" class="st22" width="16" height="36"/>
					<rect x="465.5" y="224.5" class="st22" width="16" height="45"/>
					<rect x="486.5" y="244.5" class="st22" width="17" height="25"/>
					<rect x="507.5" y="229.5" class="st22" width="17" height="40"/>
					<rect x="528.5" y="223.5" class="st22" width="17" height="46"/>
					<rect x="549.5" y="224.5" class="st22" width="17" height="45"/>
					<rect x="570.5" y="228.5" class="st22" width="17" height="41"/>
				</g>
				<g>
					<rect x="296.5" y="210.5" class="st23" width="17" height="29"/>
					<rect x="317.5" y="161.5" class="st23" width="17" height="50"/>
					<rect x="338.5" y="169.5" class="st23" width="17" height="56"/>
					<rect x="359.5" y="158.5" class="st23" width="17" height="58"/>
					<rect x="380.5" y="192.5" class="st23" width="17" height="37"/>
					<rect x="401.5" y="194.5" class="st23" width="17" height="33"/>
					<rect x="422.5" y="191.5" class="st23" width="17" height="44"/>
					<rect x="444.5" y="192.5" class="st23" width="16" height="41"/>
					<rect x="465.5" y="185.5" class="st23" width="16" height="39"/>
					<rect x="486.5" y="223.5" class="st23" width="17" height="21"/>
					<rect x="507.5" y="169.5" class="st23" width="17" height="60"/>
					<rect x="528.5" y="178.5" class="st23" width="17" height="45"/>
					<rect x="549.5" y="181.5" class="st23" width="17" height="43"/>
					<rect x="570.5" y="189.5" class="st23" width="17" height="39"/>
				</g>
				<g>
					<rect x="296.5" y="172.5" class="st24" width="17" height="38"/>
					<rect x="317.5" y="123.5" class="st24" width="17" height="38"/>
					<rect x="338.5" y="125.5" class="st24" width="17" height="44"/>
					<rect x="359.5" y="107.5" class="st24" width="17" height="51"/>
					<rect x="380.5" y="158.5" class="st24" width="17" height="34"/>
					<rect x="401.5" y="158.5" class="st24" width="17" height="36"/>
					<rect x="422.5" y="148.5" class="st24" width="17" height="43"/>
					<rect x="444.5" y="148.5" class="st24" width="16" height="44"/>
					<rect x="465.5" y="136.5" class="st24" width="16" height="49"/>
					<rect x="486.5" y="191.5" class="st24" width="17" height="32"/>
					<rect x="507.5" y="100.5" class="st24" width="17" height="69"/>
					<rect x="528.5" y="136.5" class="st24" width="17" height="42"/>
					<rect x="549.5" y="140.5" class="st24" width="17" height="41"/>
					<rect x="570.5" y="149.5" class="st24" width="17" height="40"/>
				</g>
				<g>
					<rect x="296.5" y="135.5" class="st25" width="17" height="37"/>
					<rect x="317.5" y="80.5" class="st25" width="17" height="43"/>
					<rect x="338.5" y="78.5" class="st25" width="17" height="47"/>
					<rect x="359.5" y="55.5" class="st25" width="17" height="52"/>
					<rect x="380.5" y="119.5" class="st25" width="17" height="39"/>
					<rect x="401.5" y="125.5" class="st25" width="17" height="33"/>
					<rect x="422.5" y="108.5" class="st25" width="17" height="40"/>
					<rect x="444.5" y="113.5" class="st25" width="16" height="35"/>
					<rect x="465.5" y="79.5" class="st25" width="16" height="57"/>
					<rect x="486.5" y="157.5" class="st25" width="17" height="34"/>
					<rect x="507.5" y="53.5" class="st25" width="17" height="47"/>
					<rect x="528.5" y="91.5" class="st25" width="17" height="45"/>
					<rect x="549.5" y="99.5" class="st25" width="17" height="41"/>
					<rect x="570.5" y="109.5" class="st25" width="17" height="40"/>
				</g>
			</g>
		</g>
		<g>
			<g>
				<g>
					<path class="st26" d="M94.5,224.5l21-11l21-157l21,168l21-15l21,15l21,8l21,11l21,4l21-38l21,4h21l22-30l21,4l21-8l21,8l21-4
						l21,8l21-15l21,11l21-15l21,7l21,4l21-7"/>
				</g>
				<g>
					<path class="st27" d="M91.5,224.5c0,1.7,1.3,3,3,3s3-1.3,3-3s-1.3-3-3-3S91.5,222.8,91.5,224.5z"/>
					<path class="st28" d="M0,0"/>
					<path class="st27" d="M112.5,213.5c0,1.7,1.3,3,3,3s3-1.3,3-3s-1.3-3-3-3S112.5,211.8,112.5,213.5z"/>
					<path class="st27" d="M133.5,56.5c0,1.7,1.3,3,3,3s3-1.3,3-3s-1.3-3-3-3S133.5,54.8,133.5,56.5z"/>
					<path class="st27" d="M154.5,224.5c0,1.7,1.3,3,3,3s3-1.3,3-3s-1.3-3-3-3S154.5,222.8,154.5,224.5z"/>
					<path class="st27" d="M175.5,209.5c0,1.7,1.3,3,3,3s3-1.3,3-3s-1.3-3-3-3S175.5,207.8,175.5,209.5z"/>
					<path class="st27" d="M196.5,224.5c0,1.7,1.3,3,3,3s3-1.3,3-3s-1.3-3-3-3S196.5,222.8,196.5,224.5z"/>
					<path class="st27" d="M217.5,232.5c0,1.7,1.3,3,3,3s3-1.3,3-3s-1.3-3-3-3S217.5,230.8,217.5,232.5z"/>
					<path class="st27" d="M238.5,243.5c0,1.7,1.3,3,3,3s3-1.3,3-3s-1.3-3-3-3S238.5,241.8,238.5,243.5z"/>
					<path class="st27" d="M259.5,247.5c0,1.7,1.3,3,3,3s3-1.3,3-3s-1.3-3-3-3S259.5,245.8,259.5,247.5L259.5,247.5z"/>
					<path class="st27" d="M280.5,209.5c0,1.7,1.3,3,3,3s3-1.3,3-3s-1.3-3-3-3S280.5,207.8,280.5,209.5z"/>
					<path class="st27" d="M301.5,213.5c0,1.7,1.3,3,3,3s3-1.3,3-3s-1.3-3-3-3S301.5,211.8,301.5,213.5z"/>
					<path class="st27" d="M322.5,213.5c0,1.7,1.3,3,3,3s3-1.3,3-3s-1.3-3-3-3S322.5,211.8,322.5,213.5z"/>
					<path class="st27" d="M344.5,183.5c0,1.7,1.3,3,3,3s3-1.3,3-3s-1.3-3-3-3S344.5,181.8,344.5,183.5z"/>
					<path class="st27" d="M365.5,187.5c0,1.7,1.3,3,3,3s3-1.3,3-3s-1.3-3-3-3S365.5,185.8,365.5,187.5z"/>
					<path class="st27" d="M386.5,179.5c0,1.7,1.3,3,3,3s3-1.3,3-3s-1.3-3-3-3S386.5,177.8,386.5,179.5z"/>
					<path class="st27" d="M407.5,187.5c0,1.7,1.3,3,3,3s3-1.3,3-3s-1.3-3-3-3S407.5,185.8,407.5,187.5z"/>
					<path class="st27" d="M428.5,183.5c0,1.7,1.3,3,3,3s3-1.3,3-3s-1.3-3-3-3S428.5,181.8,428.5,183.5z"/>
					<path class="st27" d="M449.5,191.5c0,1.7,1.3,3,3,3s3-1.3,3-3s-1.3-3-3-3S449.5,189.8,449.5,191.5z"/>
					<path class="st27" d="M470.5,176.5c0,1.7,1.3,3,3,3s3-1.3,3-3s-1.3-3-3-3S470.5,174.8,470.5,176.5z"/>
					<path class="st27" d="M491.5,187.5c0,1.7,1.3,3,3,3s3-1.3,3-3s-1.3-3-3-3S491.5,185.8,491.5,187.5z"/>
					<path class="st27" d="M512.5,172.5c0,1.7,1.3,3,3,3s3-1.3,3-3s-1.3-3-3-3S512.5,170.8,512.5,172.5z"/>
					<path class="st27" d="M533.5,179.5c0,1.7,1.3,3,3,3s3-1.3,3-3s-1.3-3-3-3S533.5,177.8,533.5,179.5z"/>
					<path class="st27" d="M554.5,183.5c0,1.7,1.3,3,3,3s3-1.3,3-3s-1.3-3-3-3S554.5,181.8,554.5,183.5z"/>
					<path class="st27" d="M575.5,176.5c0,1.7,1.3,3,3,3s3-1.3,3-3s-1.3-3-3-3S575.5,174.8,575.5,176.5z"/>
				</g>
			</g>
		</g>
	</g>
	<g>
		<g>
			<g>
				<defs>
					<rect id="SVGID_00000044859882619728583270000002871703183833043610_" x="79" y="45.2" width="515" height="224.2"/>
				</defs>
				<clipPath id="SVGID_00000137096522260073903430000015581266649849738909_">
					<use xlink:href="#SVGID_00000044859882619728583270000002871703183833043610_"  style="overflow:visible;"/>
				</clipPath>
			</g>
			<g>
				<defs>
					<rect id="SVGID_00000011718831464695017060000013517203356241681550_" x="80" y="44.2" width="513" height="226.2"/>
				</defs>
				<clipPath id="SVGID_00000137090956250240413780000007601155311499132858_">
					<use xlink:href="#SVGID_00000011718831464695017060000013517203356241681550_"  style="overflow:visible;"/>
				</clipPath>
			</g>
			<g>
				<defs>
					<rect id="SVGID_00000060724116384492682590000011762867707958448020_" x="80" y="44.2" width="513" height="226.2"/>
				</defs>
				<clipPath id="SVGID_00000097477138362159650070000001723870780314607765_">
					<use xlink:href="#SVGID_00000060724116384492682590000011762867707958448020_"  style="overflow:visible;"/>
				</clipPath>
			</g>
		</g>
		<g>
			<g>
				<defs>
					<rect id="SVGID_00000157291802254732675460000008696236160017621927_" x="80" y="45.2" width="513" height="224.2"/>
				</defs>
				<clipPath id="SVGID_00000129191326311588896150000000066726407409802649_">
					<use xlink:href="#SVGID_00000157291802254732675460000008696236160017621927_"  style="overflow:visible;"/>
				</clipPath>
			</g>
			<g>
				<defs>
					<rect id="SVGID_00000099624698593946787460000014701582016999294900_" x="80" y="45.2" width="513" height="224.2"/>
				</defs>
				<clipPath id="SVGID_00000050629548460563799780000008516628240328614555_">
					<use xlink:href="#SVGID_00000099624698593946787460000014701582016999294900_"  style="overflow:visible;"/>
				</clipPath>
			</g>
			<g>
				<defs>
					<rect id="SVGID_00000106863808885237509750000013819062074463783562_" x="80" y="45.2" width="513" height="224.2"/>
				</defs>
				<clipPath id="SVGID_00000164494727612002126530000015457589901510904740_">
					<use xlink:href="#SVGID_00000106863808885237509750000013819062074463783562_"  style="overflow:visible;"/>
				</clipPath>
			</g>
		</g>
	</g>
	<g>
		<defs>
			<rect id="SVGID_00000044886346677490221490000007016965021909486752_" x="80" width="513" height="269.5"/>
		</defs>
		<clipPath id="SVGID_00000142139748318232208640000018142597598714747293_">
			<use xlink:href="#SVGID_00000044886346677490221490000007016965021909486752_"  style="overflow:visible;"/>
		</clipPath>
	</g>
	<g transform="matrix(1,0,0,1,122.5,326.5)">
		<rect class="st29" width="428" height="59"/>
		<g>
			<text transform="matrix(1 0 0 1 23 16.5)" class="st11 st17 st4">Mid-Year Report</text>
			<path class="st30" d="M7,18v-7.7h2.8V18H7z M11.1,18V7h2.8v11H11.1z M15.2,18v-4.4H18V18H15.2z"/>
			<rect x="4" y="4" class="st31" width="110" height="17"/>
			<text transform="matrix(1 0 0 1 165.85 16.5)" class="st11 st17 st4">Year-End Report</text>
			<path class="st32" d="M149.9,18v-7.7h2.8V18H149.9z M154,18V7h2.8v11H154z M158.1,18v-4.4h2.8V18H158.1z"/>
			<rect x="146.9" y="4" class="st31" width="112" height="17"/>
			<text transform="matrix(1 0 0 1 308.7 16.5)" class="st11 st17 st4">Q1 Report</text>
			<path class="st33" d="M292.7,18v-7.7h2.8V18H292.7z M296.8,18V7h2.8v11H296.8z M301,18v-4.4h2.8V18H301z"/>
			<rect x="289.7" y="4" class="st31" width="77" height="17"/>
			<text transform="matrix(1 0 0 1 23 33.5)" class="st11 st17 st4">Q2 Report</text>
			<path class="st34" d="M7,35v-7.7h2.8V35H7z M11.1,35V24h2.8v11H11.1z M15.2,35v-4.4H18V35H15.2z"/>
			<rect x="4" y="21" class="st31" width="78" height="17"/>
			<text transform="matrix(1 0 0 1 165.85 33.5)" class="st11 st17 st4">Q3 Report</text>
			<path class="st35" d="M149.9,35v-7.7h2.8V35H149.9z M154,35V24h2.8v11H154z M158.1,35v-4.4h2.8V35H158.1z"/>
			<rect x="146.9" y="21" class="st31" width="78" height="17"/>
			<text transform="matrix(1 0 0 1 308.7 33.5)" class="st11 st17 st4">Q4 Report</text>
			<path class="st36" d="M292.7,35v-7.7h2.8V35H292.7z M296.8,35V24h2.8v11H296.8z M301,35v-4.4h2.8V35H301z"/>
			<rect x="289.7" y="21" class="st31" width="78" height="17"/>
			<text transform="matrix(1 0 0 1 23 50.5)" class="st11 st17 st4">Number of Lobbyists</text>
			<path class="st26" d="M7,46.5h11"/>
			<path class="st27" d="M9.2,46.5c0,1.8,1.5,3.3,3.3,3.3s3.3-1.5,3.3-3.3s-1.5-3.3-3.3-3.3S9.2,44.7,9.2,46.5z"/>
			<rect x="4" y="38" class="st31" width="132" height="17"/>
		</g>
	</g>
</g>
<g class="st1">
	<rect x="605.8" y="6" class="st37" width="31.2" height="30.2"/>
	<g class="st38">
		<path class="st39" d="M609.8,9H633c0.6,0,1,0.4,1,1v22.2c0,0.6-0.4,1-1,1h-23.2c-0.6,0-1-0.4-1-1V10C608.8,9.4,609.2,9,609.8,9z"
			/>
		<g>
			<path class="st40" d="M613.8,12.5h13.4c1.3,0,2.3,1,2.3,2.3v12.4c0,1.3-1,2.3-2.3,2.3h-13.4c-1.3,0-2.3-1-2.3-2.3V14.8
				C611.5,13.5,612.5,12.5,613.8,12.5z"/>
			<path class="st41" d="M616.3,21h8.4 M616.3,24h8.4 M616.3,18h8.4"/>
			<path class="st42" d="M613.8,12.5h13.4c1.3,0,2.3,1,2.3,2.3v12.4c0,1.3-1,2.3-2.3,2.3h-13.4c-1.3,0-2.3-1-2.3-2.3V14.8
				C611.5,13.5,612.5,12.5,613.8,12.5z"/>
		</g>
	</g>
</g>
<path class="st0" d="z"/>
<text transform="matrix(1 0 0 1 702.3555 157.6216)" class="st1" style="font-family:'FZHTJW--GB1-0'; font-size:12px;">滚滚长江东逝水</text>
<rect x="685.2" y="133.1" class="st7" width="153.7" height="32.7"/>
<g class="st1">
</g>
<rect x="699.1" y="146.2" class="st7" width="112" height="19.6"/>
<g class="st1">
</g>
<text transform="matrix(1 0 0 1 161.2935 -86.7554)" class="st15 st16">滚滚长江东逝水</text>
</svg>
